<svg width="126" height="21" viewBox="0 0 126 21" fill="none" xmlns="http://www.w3.org/2000/svg">
<path d="M14.875 16.49V20H0.241V1.1H14.524V4.61H4.588V8.714H13.363V12.116H4.588V16.49H14.875ZM42.4393 1.1V20H38.8483L29.4253 8.525V20H25.1053V1.1H28.7233L38.1193 12.575V1.1H42.4393ZM59.8709 20.324C58.3769 20.324 56.9279 20.126 55.5239 19.73C54.1379 19.316 53.0219 18.785 52.1759 18.137L53.6609 14.843C54.4709 15.437 55.4339 15.914 56.5499 16.274C57.6659 16.634 58.7819 16.814 59.8979 16.814C61.1399 16.814 62.0579 16.634 62.6519 16.274C63.2459 15.896 63.5429 15.401 63.5429 14.789C63.5429 14.339 63.3629 13.97 63.0029 13.682C62.6609 13.376 62.2109 13.133 61.6529 12.953C61.1129 12.773 60.3749 12.575 59.4389 12.359C57.9989 12.017 56.8199 11.675 55.9019 11.333C54.9839 10.991 54.1919 10.442 53.5259 9.686C52.8779 8.93 52.5539 7.922 52.5539 6.662C52.5539 5.564 52.8509 4.574 53.4449 3.692C54.0389 2.792 54.9299 2.081 56.1179 1.559C57.3239 1.037 58.7909 0.776 60.5189 0.776C61.7249 0.776 62.9039 0.919999 64.0559 1.208C65.2079 1.496 66.2159 1.91 67.0799 2.45L65.7299 5.771C63.9839 4.781 62.2379 4.286 60.4919 4.286C59.2679 4.286 58.3589 4.484 57.7649 4.88C57.1889 5.276 56.9009 5.798 56.9009 6.446C56.9009 7.094 57.2339 7.58 57.8999 7.904C58.5839 8.21 59.6189 8.516 61.0049 8.822C62.4449 9.164 63.6239 9.506 64.5419 9.848C65.4599 10.19 66.2429 10.73 66.8909 11.468C67.5569 12.206 67.8899 13.205 67.8899 14.465C67.8899 15.545 67.5839 16.535 66.9719 17.435C66.3779 18.317 65.4779 19.019 64.2719 19.541C63.0659 20.063 61.5989 20.324 59.8709 20.324ZM94.9627 1.1V20H90.5887V12.251H82.0027V20H77.6287V1.1H82.0027V8.552H90.5887V1.1H94.9627ZM106.184 1.1H110.558V20H106.184V1.1Z" fill="white"/>
<path d="M123.09 20.216C122.352 20.216 121.731 19.964 121.227 19.46C120.723 18.956 120.471 18.326 120.471 17.57C120.471 16.796 120.723 16.175 121.227 15.707C121.731 15.221 122.352 14.978 123.09 14.978C123.828 14.978 124.449 15.221 124.953 15.707C125.457 16.175 125.709 16.796 125.709 17.57C125.709 18.326 125.457 18.956 124.953 19.46C124.449 19.964 123.828 20.216 123.09 20.216Z" fill="url(#paint0_linear_409_409)"/>
<defs>
<linearGradient id="paint0_linear_409_409" x1="168.502" y1="32.2339" x2="125.626" y2="-63.3667" gradientUnits="userSpaceOnUse">
<stop offset="0.05" stop-color="#B621FE"/>
<stop offset="0.98" stop-color="#1FD1F9"/>
</linearGradient>
</defs>
</svg>
