<svg width="14" height="17" viewBox="0 0 14 17" fill="none" xmlns="http://www.w3.org/2000/svg">
<path d="M2.59961 5.20403C2.52003 6.06542 2.46419 7.58986 2.96538 8.23874C2.96538 8.23874 2.72944 6.56413 4.84449 4.46307C5.69609 3.61726 5.89293 2.46685 5.59557 1.60404C5.42665 1.11525 5.11812 0.711477 4.85007 0.429542C4.69371 0.26378 4.81377 -0.00965488 5.04133 0.000262465C6.41786 0.0626 8.64877 0.450793 9.5967 2.86496C10.0127 3.9247 10.0434 5.01985 9.8452 6.13343C9.71956 6.84464 9.27282 8.42575 10.2919 8.61985C11.0193 8.75869 11.3711 8.17215 11.5289 7.74996C11.5945 7.57428 11.822 7.53036 11.9449 7.67062C13.1734 9.0888 13.2781 10.7592 13.0241 12.1972C12.5326 14.9769 9.75865 17 7.00281 17C3.5601 17 0.81962 15.0009 0.109021 11.3825C-0.177173 9.92185 -0.0319814 7.03166 2.18777 4.99152C2.3525 4.83851 2.62195 4.97452 2.59961 5.20403Z" fill="url(#paint0_radial_409_179)"/>
<defs>
<radialGradient id="paint0_radial_409_179" cx="0" cy="0" r="1" gradientUnits="userSpaceOnUse" gradientTransform="translate(6.32094 17.044) rotate(-179.748) scale(9.85453 16.409)">
<stop offset="0.314" stop-color="#FF9800"/>
<stop offset="0.662" stop-color="#FF6D00"/>
<stop offset="0.972" stop-color="#F44336"/>
</radialGradient>
</defs>
</svg>
