<svg width="23" height="23" viewBox="0 0 23 23" fill="none" xmlns="http://www.w3.org/2000/svg">
<path d="M13.6656 0.5625C13.831 0.562505 13.9922 0.615006 14.1258 0.712441C14.2595 0.809877 14.3588 0.947219 14.4094 1.10469L15.2688 3.775C15.6297 3.95156 15.975 4.15 16.3047 4.37344L19.0485 3.78281C19.2102 3.74827 19.3788 3.76597 19.5299 3.83337C19.6809 3.90076 19.8067 4.01436 19.8891 4.15781L22.0547 7.90625C22.1374 8.04962 22.1724 8.21555 22.1547 8.38011C22.137 8.54467 22.0675 8.69936 21.9563 8.82187L20.0735 10.9C20.1009 11.2985 20.1009 11.6984 20.0735 12.0969L21.9563 14.1781C22.0675 14.3006 22.137 14.4553 22.1547 14.6199C22.1724 14.7845 22.1374 14.9504 22.0547 15.0938L19.8891 18.8438C19.8065 18.9869 19.6806 19.1002 19.5296 19.1673C19.3785 19.2344 19.2101 19.2519 19.0485 19.2172L16.3047 18.6266C15.9766 18.8484 15.6297 19.0484 15.2703 19.225L14.4094 21.8953C14.3588 22.0528 14.2595 22.1901 14.1258 22.2876C13.9922 22.385 13.831 22.4375 13.6656 22.4375H9.33439C9.16899 22.4375 9.00786 22.385 8.8742 22.2876C8.74054 22.1901 8.64125 22.0528 8.59064 21.8953L7.73283 19.2266C7.37286 19.0505 7.02566 18.8495 6.69377 18.625L3.95158 19.2172C3.78981 19.2517 3.62124 19.234 3.47017 19.1666C3.31911 19.0992 3.19333 18.9856 3.11095 18.8422L0.945329 15.0938C0.862633 14.9504 0.827606 14.7845 0.845297 14.6199C0.862989 14.4553 0.932486 14.3006 1.04377 14.1781L2.92658 12.0969C2.89931 11.6994 2.89931 11.3006 2.92658 10.9031L1.04377 8.82187C0.932486 8.69936 0.862989 8.54467 0.845297 8.38011C0.827606 8.21555 0.862633 8.04962 0.945329 7.90625L3.11095 4.15625C3.19355 4.01308 3.31943 3.8998 3.47048 3.8327C3.62153 3.7656 3.78997 3.74813 3.95158 3.78281L6.69377 4.375C7.02502 4.15156 7.37189 3.95 7.73283 3.77344L8.5922 1.10469C8.64265 0.947726 8.74146 0.810748 8.8745 0.713359C9.00753 0.615971 9.16796 0.563165 9.33283 0.5625H13.6641H13.6656ZM13.0938 2.125H9.90627L9.01877 4.88594L8.42033 5.17812C8.12614 5.32209 7.84214 5.48601 7.57033 5.66875L7.0172 6.04375L4.1797 5.43125L2.58595 8.19375L4.53127 10.3469L4.48439 11.0094C4.46194 11.3361 4.46194 11.6639 4.48439 11.9906L4.53127 12.6531L2.58283 14.8063L4.17814 17.5688L7.01564 16.9578L7.56877 17.3313C7.84058 17.514 8.12458 17.6779 8.41877 17.8219L9.0172 18.1141L9.90627 20.875H13.0969L13.9875 18.1125L14.5844 17.8219C14.8783 17.6782 15.1618 17.5143 15.4328 17.3313L15.9844 16.9578L18.8235 17.5688L20.4172 14.8063L18.4703 12.6531L18.5172 11.9906C18.5397 11.6634 18.5397 11.335 18.5172 11.0078L18.4703 10.3453L20.4188 8.19375L18.8235 5.43125L15.9844 6.04063L15.4328 5.66875C15.1618 5.48565 14.8783 5.32171 14.5844 5.17812L13.9875 4.8875L13.0953 2.125H13.0938ZM11.5 6.8125C12.7432 6.8125 13.9355 7.30636 14.8146 8.18544C15.6937 9.06451 16.1875 10.2568 16.1875 11.5C16.1875 12.7432 15.6937 13.9355 14.8146 14.8146C13.9355 15.6936 12.7432 16.1875 11.5 16.1875C10.2568 16.1875 9.06453 15.6936 8.18545 14.8146C7.30638 13.9355 6.81252 12.7432 6.81252 11.5C6.81252 10.2568 7.30638 9.06451 8.18545 8.18544C9.06453 7.30636 10.2568 6.8125 11.5 6.8125ZM11.5 8.375C10.6712 8.375 9.87636 8.70424 9.29031 9.29029C8.70426 9.87634 8.37502 10.6712 8.37502 11.5C8.37502 12.3288 8.70426 13.1237 9.29031 13.7097C9.87636 14.2958 10.6712 14.625 11.5 14.625C12.3288 14.625 13.1237 14.2958 13.7097 13.7097C14.2958 13.1237 14.625 12.3288 14.625 11.5C14.625 10.6712 14.2958 9.87634 13.7097 9.29029C13.1237 8.70424 12.3288 8.375 11.5 8.375Z" fill="#DDDDDD"/>
</svg>
