<svg width="14" height="14" viewBox="0 0 14 14" fill="none" xmlns="http://www.w3.org/2000/svg">
<path d="M8.42219 0C8.53081 3.33582e-06 8.63663 0.0336038 8.7244 0.0959625C8.81218 0.158321 8.87738 0.24622 8.91062 0.347L9.47498 2.056C9.71201 2.169 9.93878 2.296 10.1553 2.439L11.9571 2.061C12.0634 2.03889 12.1741 2.05022 12.2733 2.09335C12.3725 2.13648 12.4551 2.20919 12.5092 2.301L13.9314 4.7C13.9857 4.79176 14.0087 4.89795 13.9971 5.00327C13.9854 5.10859 13.9398 5.20759 13.8667 5.286L12.6303 6.616C12.6483 6.87103 12.6483 7.12697 12.6303 7.382L13.8667 8.714C13.9398 8.79241 13.9854 8.89141 13.9971 8.99673C14.0087 9.10205 13.9857 9.20824 13.9314 9.3L12.5092 11.7C12.4549 11.7916 12.3723 11.8641 12.2731 11.9071C12.1739 11.95 12.0633 11.9612 11.9571 11.939L10.1553 11.561C9.9398 11.703 9.71201 11.831 9.476 11.944L8.91062 13.653C8.87738 13.7538 8.81218 13.8417 8.7244 13.904C8.63663 13.9664 8.53081 14 8.42219 14H5.57781C5.46919 14 5.36337 13.9664 5.2756 13.904C5.18782 13.8417 5.12262 13.7538 5.08938 13.653L4.52605 11.945C4.28966 11.8323 4.06164 11.7037 3.84369 11.56L2.04287 11.939C1.93663 11.9611 1.82593 11.9498 1.72672 11.9066C1.62751 11.8635 1.54491 11.7908 1.49082 11.699L0.068632 9.3C0.0143246 9.20824 -0.00867828 9.10205 0.00294005 8.99673C0.0145584 8.89141 0.0601975 8.79241 0.133277 8.714L1.36974 7.382C1.35183 7.12763 1.35183 6.87237 1.36974 6.618L0.133277 5.286C0.0601975 5.20759 0.0145584 5.10859 0.00294005 5.00327C-0.00867828 4.89795 0.0143246 4.79176 0.068632 4.7L1.49082 2.3C1.54506 2.20837 1.62773 2.13587 1.72692 2.09293C1.82612 2.04998 1.93674 2.0388 2.04287 2.061L3.84369 2.44C4.06122 2.297 4.28902 2.168 4.52605 2.055L5.09041 0.347C5.12354 0.246545 5.18843 0.158879 5.27579 0.09655C5.36316 0.0342214 5.46852 0.000425667 5.57679 0H8.42116H8.42219ZM8.04663 1H5.95337L5.37054 2.767L4.97754 2.954C4.78434 3.04614 4.59784 3.15105 4.41934 3.268L4.05609 3.508L2.19268 3.116L1.14605 4.884L2.42355 6.262L2.39277 6.686C2.37803 6.89509 2.37803 7.10491 2.39277 7.314L2.42355 7.738L1.14399 9.116L2.19165 10.884L4.05507 10.493L4.41831 10.732C4.59681 10.849 4.78331 10.9539 4.97651 11.046L5.36951 11.233L5.95337 13H8.04868L8.63357 11.232L9.02554 11.046C9.21853 10.9541 9.4047 10.8492 9.58272 10.732L9.94493 10.493L11.8094 10.884L12.856 9.116L11.5775 7.738L11.6083 7.314C11.623 7.10458 11.623 6.89442 11.6083 6.685L11.5775 6.261L12.857 4.884L11.8094 3.116L9.94493 3.506L9.58272 3.268C9.40472 3.15081 9.21854 3.04589 9.02554 2.954L8.63357 2.768L8.04766 1H8.04663ZM7 4C7.81642 4 8.59941 4.31607 9.17671 4.87868C9.75401 5.44129 10.0783 6.20435 10.0783 7C10.0783 7.79565 9.75401 8.55871 9.17671 9.12132C8.59941 9.68393 7.81642 10 7 10C6.18358 10 5.40059 9.68393 4.82329 9.12132C4.246 8.55871 3.92167 7.79565 3.92167 7C3.92167 6.20435 4.246 5.44129 4.82329 4.87868C5.40059 4.31607 6.18358 4 7 4ZM7 5C6.45572 5 5.93373 5.21071 5.54886 5.58579C5.164 5.96086 4.94778 6.46957 4.94778 7C4.94778 7.53043 5.164 8.03914 5.54886 8.41421C5.93373 8.78929 6.45572 9 7 9C7.54428 9 8.06627 8.78929 8.45114 8.41421C8.836 8.03914 9.05222 7.53043 9.05222 7C9.05222 6.46957 8.836 5.96086 8.45114 5.58579C8.06627 5.21071 7.54428 5 7 5Z" fill="#828282"/>
</svg>
