<svg width="34" height="30" viewBox="0 0 34 30" fill="none" xmlns="http://www.w3.org/2000/svg">
<path fill-rule="evenodd" clip-rule="evenodd" d="M28.8051 27.9833V27.98L28.8351 27.9083L33.8334 2.70831V2.62831C33.8334 1.99997 33.6001 1.45164 33.0968 1.12331C32.6551 0.834974 32.1468 0.814974 31.7901 0.841641C31.4581 0.871667 31.1305 0.938751 30.8134 1.04164C30.6782 1.08523 30.5448 1.13416 30.4134 1.18831L30.3918 1.19664L2.52511 12.1283L2.51678 12.1316C2.43206 12.1606 2.34913 12.1945 2.26845 12.2333C2.07026 12.3223 1.88011 12.4283 1.70011 12.55C1.34178 12.7966 0.660114 13.3766 0.775114 14.2966C0.870114 15.06 1.39511 15.5433 1.75011 15.795C1.95966 15.9418 2.18494 16.0648 2.42178 16.1616L2.47511 16.185L2.49178 16.19L2.50345 16.195L7.38011 17.8366C7.36345 18.1416 7.39345 18.4533 7.47511 18.7616L9.91678 28.0266C10.0502 28.5317 10.3384 28.9822 10.741 29.3151C11.1436 29.6479 11.6403 29.8462 12.1614 29.8823C12.6825 29.9183 13.2018 29.7902 13.6464 29.516C14.091 29.2418 14.4385 28.8352 14.6401 28.3533L18.4534 24.2766L25.0018 29.2966L25.0951 29.3366C25.6901 29.5966 26.2451 29.6783 26.7534 29.61C27.2618 29.54 27.6651 29.3266 27.9684 29.085C28.3193 28.8005 28.5989 28.4381 28.7851 28.0266L28.7984 27.9983L28.8034 27.9883L28.8051 27.9833ZM9.89178 18.125C9.86474 18.0222 9.87117 17.9134 9.91013 17.8145C9.94909 17.7156 10.0186 17.6317 10.1084 17.575L26.6434 7.07497C26.6434 7.07497 27.6168 6.48331 27.5818 7.07497C27.5818 7.07497 27.7551 7.17831 27.2334 7.66331C26.7401 8.12497 15.4484 19.0266 14.3051 20.13C14.2415 20.1917 14.197 20.2704 14.1768 20.3566L12.3334 27.39L9.89178 18.1233V18.125Z" fill="#A8A8A8"/>
</svg>
